<svg width="22" height="16" viewBox="0 0 22 16" fill="none" xmlns="http://www.w3.org/2000/svg">
<path d="M3.82894 13.096H6.12255C6.39716 13.096 6.61872 13.0117 6.78723 12.8431C6.95574 12.6745 7.04 12.459 7.04 12.1967V10.4637C7.04 10.1952 6.95574 9.9797 6.78723 9.81733C6.61872 9.64871 6.39716 9.5644 6.12255 9.5644H3.82894C3.55433 9.5644 3.33277 9.64871 3.16426 9.81733C2.99574 9.9797 2.91149 10.1952 2.91149 10.4637V12.1967C2.91149 12.459 2.99574 12.6745 3.16426 12.8431C3.33277 13.0117 3.55433 13.096 3.82894 13.096ZM0 5.90164H22V3.77518H0V5.90164ZM2.93957 16C1.95972 16 1.22326 15.7564 0.730213 15.2693C0.243404 14.7884 0 14.0671 0 13.1054V2.90398C0 1.93599 0.243404 1.21155 0.730213 0.730679C1.22326 0.24356 1.95972 0 2.93957 0H19.0604C20.0403 0 20.7736 0.24356 21.2604 0.730679C21.7535 1.2178 22 1.94223 22 2.90398V13.1054C22 14.0671 21.7535 14.7884 21.2604 15.2693C20.7736 15.7564 20.0403 16 19.0604 16H2.93957Z" fill="white"/>
</svg>
