<svg width="18" height="21" viewBox="0 0 18 21" fill="none" xmlns="http://www.w3.org/2000/svg">
<path d="M3.22461 0.466553C4.91255 -0.658742 7.13014 0.372582 7.45898 2.26733H10.75C12.2688 2.26733 13.5 3.49855 13.5 5.01733C13.5 5.43151 13.1642 5.76733 12.75 5.76733C12.3358 5.76733 12 5.43151 12 5.01733C12 4.32698 11.4404 3.76733 10.75 3.76733H7.5V16.2673H10.75C11.4403 16.2673 12 15.7077 12 15.0173C12 14.6031 12.3358 14.2673 12.75 14.2673C13.1642 14.2673 13.5 14.6031 13.5 15.0173C13.5 16.5361 12.2688 17.7673 10.75 17.7673H7.45898C7.13014 19.6621 4.91255 20.6934 3.22461 19.5681L1.22461 18.2351C0.459601 17.7251 4.57805e-05 16.8664 0 15.947V4.08765C0 3.16818 0.459571 2.30959 1.22461 1.79956L3.22461 0.466553ZM14.2197 7.22046C14.5126 6.92767 14.9874 6.92767 15.2803 7.22046L16.5732 8.51343C17.2566 9.1968 17.2565 10.3046 16.5732 10.988L15.2803 12.281C14.9874 12.5739 14.5126 12.5739 14.2197 12.281C13.9269 11.9881 13.9269 11.5133 14.2197 11.2205L14.9395 10.5007H9.75C9.33579 10.5007 9 10.1649 9 9.75073C9.00008 9.33659 9.33584 9.00073 9.75 9.00073H14.9395L14.2197 8.28101C13.9269 7.98811 13.9269 7.51333 14.2197 7.22046Z" fill="white"/>
</svg>
